<svg width="16" height="16" viewBox="0 0 16 16" fill="none" xmlns="http://www.w3.org/2000/svg">
<path d="M4.91068 0C2.48955 0 0.5 2.11927 0.5 4.70473V11.2953C0.5 13.8778 2.48682 16 4.91068 16H11.0893C13.5105 16 15.5 13.8807 15.5 11.2953V4.70545C15.5 2.12218 13.5132 0 11.0893 0H4.91068ZM4.91068 1.45455H11.0893C11.4896 1.45397 11.8861 1.53765 12.256 1.70078C12.6259 1.86391 12.9621 2.1033 13.2451 2.40522C13.5282 2.70714 13.7526 3.06567 13.9055 3.46026C14.0585 3.85485 14.1369 4.27775 14.1364 4.70473V11.2953C14.1369 11.7223 14.0585 12.1452 13.9055 12.5397C13.7526 12.9343 13.5282 13.2929 13.2451 13.5948C12.9621 13.8967 12.6259 14.1361 12.256 14.2992C11.8861 14.4624 11.4896 14.546 11.0893 14.5455H4.91136C4.51101 14.5461 4.11447 14.4625 3.74446 14.2994C3.37446 14.1363 3.03826 13.897 2.75514 13.595C2.47201 13.2931 2.24753 12.9345 2.09455 12.5399C1.94157 12.1453 1.8631 11.7223 1.86364 11.2953V4.70545C1.86301 4.27841 1.94139 3.85543 2.09429 3.46076C2.24718 3.06609 2.47159 2.70748 2.75465 2.40548C3.03771 2.10348 3.37386 1.86403 3.74383 1.70085C4.11381 1.53767 4.51033 1.45397 4.91068 1.45455ZM12.0268 3.04582C11.9456 3.04543 11.8651 3.06221 11.79 3.09519C11.7149 3.12817 11.6466 3.17669 11.5892 3.23795C11.5318 3.29921 11.4863 3.372 11.4554 3.45212C11.4245 3.53224 11.4087 3.61809 11.4091 3.70473C11.4091 4.07127 11.6832 4.36364 12.0268 4.36364C12.1081 4.36412 12.1887 4.34741 12.2638 4.31447C12.339 4.28154 12.4074 4.23304 12.4649 4.17176C12.5224 4.11049 12.5679 4.03767 12.5989 3.9575C12.6298 3.87734 12.6456 3.79143 12.6452 3.70473C12.6456 3.61803 12.6298 3.53211 12.5989 3.45195C12.5679 3.37179 12.5224 3.29896 12.4649 3.23769C12.4074 3.17642 12.339 3.12791 12.2638 3.09498C12.1887 3.06205 12.1081 3.04534 12.0268 3.04582ZM8 3.63636C5.75 3.63636 3.90909 5.6 3.90909 8C3.90909 10.4 5.75 12.3636 8 12.3636C10.25 12.3636 12.0909 10.4 12.0909 8C12.0909 5.6 10.25 3.63636 8 3.63636ZM8 5.09091C9.51568 5.09091 10.7273 6.38327 10.7273 8C10.7273 9.61673 9.51568 10.9091 8 10.9091C6.48432 10.9091 5.27273 9.61673 5.27273 8C5.27273 6.38327 6.48432 5.09091 8 5.09091Z" fill="url(#paint0_linear_33_210)"/>
<defs>
<linearGradient id="paint0_linear_33_210" x1="8" y1="0" x2="8" y2="16" gradientUnits="userSpaceOnUse">
<stop stop-color="#5C43F6"/>
<stop offset="1" stop-color="#BC61F3"/>
</linearGradient>
</defs>
</svg>
