<svg width="16" height="16" viewBox="0 0 16 16" fill="none" xmlns="http://www.w3.org/2000/svg">
<path d="M2.38786 5.50911e-07C2.14007 -0.000190527 1.89467 0.0493254 1.66568 0.14572C1.43669 0.242114 1.22859 0.383499 1.05328 0.561797C0.877967 0.740095 0.738871 0.951813 0.643937 1.18486C0.549004 1.4179 0.500094 1.66771 0.5 1.92C0.5 2.98182 1.345 3.86182 2.38571 3.86182C3.42786 3.86182 4.27357 2.98182 4.27357 1.92146C4.27376 1.66919 4.22512 1.41937 4.13044 1.18626C4.03576 0.953143 3.89689 0.741312 3.72176 0.56287C3.54664 0.384427 3.3387 0.242871 3.10982 0.146291C2.88094 0.0497108 2.63561 4.78522e-07 2.38786 5.50911e-07ZM11.5964 5.09091C10.0114 5.09091 9.105 5.93455 8.66929 6.77382H8.62357V5.31709H5.5V16H8.755V10.712C8.755 9.31855 8.85786 7.97164 10.5514 7.97164C12.2207 7.97164 12.245 9.56073 12.245 10.8V16H15.5V10.1324C15.5 7.26109 14.8936 5.09091 11.5964 5.09091ZM0.759286 5.31636V16H4.01643V5.31636H0.759286Z" fill="url(#paint0_linear_33_207)"/>
<defs>
<linearGradient id="paint0_linear_33_207" x1="8" y1="0" x2="8" y2="16" gradientUnits="userSpaceOnUse">
<stop stop-color="#5C43F6"/>
<stop offset="1" stop-color="#BC61F3"/>
</linearGradient>
</defs>
</svg>
