<svg width="17" height="13" viewBox="0 0 17 13" fill="none" xmlns="http://www.w3.org/2000/svg">
<path d="M16.5 1.54213C15.9009 1.80721 15.2654 1.98085 14.6147 2.05721C15.2997 1.6472 15.8124 1.00238 16.0573 0.242745C15.413 0.624388 14.7086 0.893871 13.974 1.0397C13.524 0.558829 12.9396 0.224418 12.2969 0.0799495C11.6542 -0.0645192 10.9829 -0.0123618 10.3702 0.229639C9.75753 0.47164 9.23188 0.892289 8.86161 1.43689C8.49134 1.98149 8.29356 2.62484 8.294 3.2833C8.294 3.54117 8.32267 3.79105 8.38067 4.03027C7.07501 3.96604 5.79754 3.62754 4.63152 3.03682C3.46551 2.44611 2.4371 1.61645 1.61333 0.601907C1.32065 1.10267 1.16714 1.6725 1.16867 2.25245C1.16867 3.38991 1.74667 4.39477 2.62933 4.98315C2.10797 4.96662 1.59817 4.8254 1.14267 4.57135V4.61333C1.14222 5.37108 1.40429 6.10562 1.88434 6.6921C2.3644 7.27858 3.03281 7.68082 3.776 7.83046C3.29271 7.96294 2.78541 7.98254 2.29333 7.88777C2.50294 8.53966 2.91103 9.10983 3.46059 9.51865C4.01015 9.92745 4.67374 10.1545 5.35867 10.168C4.67776 10.7022 3.89814 11.0969 3.06443 11.3296C2.23072 11.5623 1.35928 11.6284 0.5 11.524C2.00035 12.4891 3.74716 13.0015 5.53133 13C11.57 13 14.8727 7.99971 14.8727 3.66311C14.8727 3.52318 14.8673 3.37925 14.862 3.23865C15.5037 2.77424 16.0582 2.20012 16.5 1.54279V1.54213Z" fill="url(#paint0_linear_33_208)"/>
<defs>
<linearGradient id="paint0_linear_33_208" x1="8.5" y1="0" x2="8.5" y2="13" gradientUnits="userSpaceOnUse">
<stop stop-color="#5C43F6"/>
<stop offset="1" stop-color="#BC61F3"/>
</linearGradient>
</defs>
</svg>
