<svg width="20" height="13" viewBox="0 0 20 13" fill="none" xmlns="http://www.w3.org/2000/svg">
<path d="M19.0992 2.02959C18.991 1.63697 18.7793 1.27898 18.4852 0.991472C18.1911 0.703962 17.8248 0.497009 17.4232 0.391327C15.944 1.18601e-07 10 0 10 0C10 0 4.05603 1.18601e-07 2.57683 0.391327C2.17516 0.497009 1.80894 0.703962 1.51481 0.991472C1.22068 1.27898 1.00896 1.63697 0.900846 2.02959C0.624646 3.50421 0.490613 5.0009 0.500511 6.5C0.490613 7.9991 0.624646 9.49579 0.900846 10.9704C1.00896 11.363 1.22068 11.721 1.51481 12.0085C1.80894 12.296 2.17516 12.503 2.57683 12.6087C4.05603 13 10 13 10 13C10 13 15.944 13 17.4232 12.6087C17.8248 12.503 18.1911 12.296 18.4852 12.0085C18.7793 11.721 18.991 11.363 19.0992 10.9704C19.3754 9.49579 19.5094 7.9991 19.4995 6.5C19.5094 5.0009 19.3754 3.50421 19.0992 2.02959ZM8.1001 9.28572V3.71429L13.0331 6.5L8.1001 9.28572Z" fill="url(#paint0_linear_33_206)"/>
<defs>
<linearGradient id="paint0_linear_33_206" x1="10" y1="0" x2="10" y2="13" gradientUnits="userSpaceOnUse">
<stop stop-color="#5C43F6"/>
<stop offset="1" stop-color="#BC61F3"/>
</linearGradient>
</defs>
</svg>
